<?xml version="1.0" encoding="UTF-8" standalone="no"?>
<!-- Created with Inkscape (http://www.inkscape.org/) -->

<svg
   width="120"
   height="120"
   viewBox="0 0 120 120"
   version="1.1"
   id="svg5"
   xml:space="preserve"
   inkscape:version="1.2.2 (b0a8486541, 2022-12-01)"
   sodipodi:docname="favico.svg"
   xmlns:inkscape="http://www.inkscape.org/namespaces/inkscape"
   xmlns:sodipodi="http://sodipodi.sourceforge.net/DTD/sodipodi-0.dtd"
   xmlns="http://www.w3.org/2000/svg"
   xmlns:svg="http://www.w3.org/2000/svg"><sodipodi:namedview
     id="namedview7"
     pagecolor="#505050"
     bordercolor="#ffffff"
     borderopacity="1"
     inkscape:showpageshadow="0"
     inkscape:pageopacity="0"
     inkscape:pagecheckerboard="1"
     inkscape:deskcolor="#505050"
     inkscape:document-units="px"
     showgrid="false"
     inkscape:zoom="2.3291667"
     inkscape:cx="27.906976"
     inkscape:cy="61.824686"
     inkscape:window-width="1366"
     inkscape:window-height="695"
     inkscape:window-x="0"
     inkscape:window-y="0"
     inkscape:window-maximized="1"
     inkscape:current-layer="layer1" /><defs
     id="defs2" /><g
     inkscape:label="Capa 1"
     inkscape:groupmode="layer"
     id="layer1"><path
       style="fill:#cccccc;stroke-width:0.529053"
       d="m 51.362124,111.65668 c -1.336071,-1.79545 -4.544715,-5.0878 -7.130317,-7.31633 -4.801378,-4.13831 -8.511738,-8.024297 -9.407745,-9.85305 -0.41909,-0.855391 -0.558676,-0.636333 -0.85219,1.337478 l -0.350998,2.360424 -1.703037,-2.575786 c -0.936665,-1.416684 -2.18109,-3.770785 -2.765386,-5.231332 -1.07137,-2.678077 -2.211329,-8.781422 -1.782469,-9.543364 0.12738,-0.226304 0.0036,-0.411462 -0.27568,-0.411462 -0.27899,0 -0.797828,0.864071 -1.152967,1.92016 -0.35513,1.056089 -0.810711,1.920161 -1.01239,1.920161 -0.597015,0 -1.922144,-4.913122 -2.478474,-9.189343 -0.552271,-4.245027 -0.120118,-9.301568 1.194781,-13.979997 l 0.729682,-2.596185 -1.732997,-1.151728 C 21.68879,56.712875 20.90895,56.063115 20.90895,55.902419 c 0,-0.160696 0.92455,-1.189792 2.054558,-2.286879 1.130008,-1.097087 3.086921,-3.960448 4.348702,-6.36302 2.029678,-3.864725 2.233945,-4.554063 1.771842,-5.979508 -0.287281,-0.886149 -0.52232,-2.481452 -0.52232,-3.545111 v -1.933927 l 1.180798,1.19287 c 0.649438,0.656075 1.338191,1.192865 1.53056,1.192865 0.192368,0 0.349753,-1.806773 0.349753,-4.015058 0,-3.838342 1.104252,-9.391611 2.087061,-10.495875 0.281823,-0.316641 0.463872,0.344039 0.463872,1.683432 0,2.598734 1.340907,7.854525 2.268352,8.890989 0.52924,0.591448 0.609069,0.182943 0.428842,-2.19447 l -0.221453,-2.921207 1.347095,2.468779 c 0.740905,1.357828 2.178501,3.390813 3.194671,4.517744 1.695711,1.880563 1.919699,1.978754 2.725358,1.194725 0.48279,-0.469831 1.172959,-1.620512 1.533718,-2.557068 0.584422,-1.517207 0.552198,-1.767053 -0.295608,-2.291965 -1.505463,-0.932074 -4.858753,-4.232184 -4.858753,-4.781685 0,-0.274378 0.67735,-0.122212 1.505219,0.338146 3.061851,1.702613 2.894705,0.740955 -0.480146,-2.762629 -1.907061,-1.979806 -4.007997,-4.695462 -4.66873,-6.034793 -0.660742,-1.339331 -1.330983,-2.435148 -1.489414,-2.435148 -1.311426,0 -5.309472,6.938916 -5.879001,10.203438 -0.179062,1.026381 -0.559099,1.866147 -0.844522,1.866147 -0.327913,0 -0.432685,-1.602665 -0.284593,-4.353458 0.287741,-5.34511 2.258627,-10.066545 5.725793,-13.716704 1.271885,-1.3390093 2.384275,-2.3265211 2.471979,-2.1944692 0.08769,0.1320509 0.758668,1.2472929 1.49102,2.4783182 2.561416,4.305538 6.546247,8.962145 9.715513,11.353395 l 3.19569,2.411181 4.979015,-0.54581 c 3.315357,-0.363436 6.469052,-0.361919 9.438435,0.0045 3.58216,0.442086 4.740702,0.399702 5.889321,-0.215455 2.380207,-1.274751 8.942935,-8.354683 11.157232,-12.036535 l 2.081198,-3.4605188 1.391994,1.0658525 c 4.420953,3.3851353 7.653652,11.6657633 6.838904,17.5180313 l -0.337322,2.422999 -0.892605,-3.102215 c -0.917062,-3.187219 -3.35846,-7.741039 -5.013756,-9.351908 -0.885317,-0.86155 -0.984875,-0.786764 -1.902749,1.429342 -0.532704,1.286154 -2.624006,4.128324 -4.647332,6.315937 -3.799823,4.108344 -3.921339,4.53745 -0.900571,3.180219 1.724489,-0.774813 1.75886,-0.765965 1.221221,0.31431 -0.304268,0.611362 -1.569315,1.881724 -2.811204,2.823026 -1.241881,0.941307 -2.257112,2.095977 -2.256066,2.565934 0.0027,1.051979 1.866312,4.420486 2.446071,4.420486 0.666551,0 2.91798,-2.772045 4.612997,-5.679712 l 1.551994,-2.662309 0.173289,2.662309 0.173289,2.662315 0.929385,-2.174045 c 0.511152,-1.195728 1.204307,-3.911385 1.540348,-6.034793 l 0.610972,-3.86076 0.895086,2.743087 c 0.492298,1.508698 1.031389,4.903269 1.197993,7.543491 0.166595,2.640222 0.481842,4.800404 0.700543,4.800404 0.218702,0 0.873463,-0.650491 1.455035,-1.445531 l 1.057405,-1.44553 -0.02237,1.856993 c -0.01227,1.021345 -0.320073,2.752848 -0.68389,3.847778 -0.628184,1.890525 -0.571279,2.152995 1.12997,5.211867 3.587754,6.450837 4.236163,7.396427 5.751261,8.38722 l 1.542441,1.008677 -1.333374,1.127838 c -0.733354,0.62031 -1.605743,1.225468 -1.938644,1.344792 -0.442257,0.158524 -0.344314,1.09188 0.363645,3.465403 1.844084,6.182574 1.600583,15.384398 -0.553849,20.929089 l -0.79597,2.048538 -1.069268,-2.183948 -1.069259,-2.183947 -0.424664,3.566013 c -0.458763,3.852346 -2.532161,9.202782 -4.821804,12.442744 l -1.431155,2.025147 -0.255093,-2.350526 -0.255093,-2.350534 -1.629496,2.495325 c -0.896232,1.372436 -3.306858,3.922402 -5.356951,5.666596 -2.050093,1.74421 -5.736303,5.33254 -8.191566,7.97408 -2.455272,2.64154 -4.464128,4.67614 -4.464128,4.52132 0,-0.15481 0.713516,-1.81743 1.585589,-3.6947 1.755982,-3.78002 5.433812,-9.22697 9.898464,-14.659874 4.296442,-5.22821 5.904458,-9.710456 6.494979,-18.10437 l 0.135084,-1.920162 0.977306,1.920162 c 0.53752,1.056088 1.258795,2.907673 1.602838,4.114631 l 0.625532,2.19447 0.653922,-1.645852 c 0.421246,-1.060226 0.647796,-4.13476 0.636709,-8.640726 -0.0095,-3.847181 0.112657,-6.994874 0.271395,-6.994874 0.158737,0 1.159219,0.914178 2.223309,2.031504 1.908699,2.004193 1.934708,2.012905 1.934708,0.648191 0,-3.8869 -3.227405,-10.918766 -5.864004,-12.776462 -1.230135,-0.866733 -1.243983,-0.855393 -1.779844,1.457067 -0.297042,1.28183 -0.991541,3.37983 -1.543334,4.662224 -0.785117,1.824625 -1.277893,2.331624 -2.266223,2.331624 -2.027116,0 -6.759472,2.132372 -9.226653,4.157484 -1.253058,1.028531 -2.278293,1.661856 -2.278293,1.407379 0,-1.449596 4.214258,-6.299264 7.770581,-8.942185 1.192931,-0.886544 2.433134,-4.133203 2.433134,-6.36957 0,-0.887927 -0.52915,-1.252522 -2.589003,-1.783896 -1.423947,-0.367332 -3.855926,-0.554899 -5.404394,-0.416817 l -2.81539,0.251063 0.28978,-1.558068 c 0.386379,-2.0774 -0.267804,-1.96415 -2.179647,0.37735 -2.197635,2.691512 -3.454274,5.536237 -4.388449,9.934366 -0.837387,3.942464 -2.61106,7.908826 -3.710559,8.297708 -0.835014,0.295332 -3.012784,-4.799514 -3.68796,-8.627904 -0.283095,-1.605179 -1.006598,-3.977592 -1.607781,-5.272034 -1.152688,-2.481885 -5.990666,-7.953506 -5.299197,-5.99324 1.047419,2.969349 1.12077,2.89585 -2.619802,2.624965 -2.198257,-0.159193 -4.240185,0.02304 -5.526983,0.4933 -1.914088,0.699476 -2.029849,0.863316 -1.865247,2.639833 0.267786,2.890253 1.864607,5.790152 3.618505,6.571368 1.751193,0.780007 4.669028,4.039075 5.890819,6.579717 l 0.814283,1.693281 -2.545881,-1.966816 c -2.567064,-1.983181 -7.316209,-4.097284 -9.204163,-4.097284 -1.346103,0 -2.539783,-2.049493 -3.616738,-6.209802 l -0.877819,-3.391004 -2.302002,2.554242 c -2.544023,2.822774 -4.461603,7.477981 -4.436524,10.770311 0.01164,1.536518 0.133352,1.819934 0.495293,1.153983 0.26388,-0.485509 1.261962,-1.524283 2.21796,-2.308389 l 1.738174,-1.425638 -0.261453,5.931598 c -0.296618,6.729369 0.629276,13.045756 1.535016,10.471759 1.155331,-3.283334 2.490988,-6.135278 2.745287,-5.86183 0.151872,0.163318 0.493777,2.181999 0.759777,4.485963 0.76169,6.597418 1.986827,9.350233 6.993059,15.713016 2.464925,3.132848 5.197005,6.823678 6.071297,8.201838 1.825735,2.87795 4.923075,9.26469 4.64044,9.56861 -0.10461,0.11249 -1.283342,-1.26449 -2.619414,-3.05995 z m 4.608288,-18.084724 c -0.904369,-0.915187 -2.375804,-2.136362 -3.269853,-2.713727 -0.894049,-0.577372 -1.870534,-1.542022 -2.169976,-2.143674 -0.533064,-1.071077 -0.496745,-1.076437 1.740575,-0.256676 1.844922,0.675979 2.632088,0.714058 4.087086,0.197689 2.081504,-0.738703 3.477504,-2.746136 1.909713,-2.746136 -0.517449,0 -1.363198,-0.332117 -1.879438,-0.738038 -0.870567,-0.684527 -0.822141,-0.763095 0.66777,-1.08352 1.855775,-0.399114 2.171193,-1.470147 0.432965,-1.470147 -1.402008,0 -2.39787,-0.951111 -2.39787,-2.290105 0,-1.468336 2.647243,-2.647452 5.943836,-2.647452 4.239256,0 2.794867,-1.160189 -1.893475,-1.520905 -3.38206,-0.260215 -3.578434,-0.340632 -2.45991,-1.007355 1.89436,-1.129176 6.537054,-0.949844 8.485712,0.327777 1.409667,0.924233 1.658102,1.404389 1.658102,3.204622 0,2.385148 -1.187257,3.933418 -3.016257,3.933418 -1.462359,0 -1.143396,1.306165 0.377746,1.546854 1.614809,0.255514 1.354745,1.170586 -0.442527,1.55712 -1.921134,0.413166 -1.727773,1.241755 0.609889,2.613484 1.680673,0.986212 1.949957,0.999911 4.174592,0.212359 2.570925,-0.91014 2.976663,-0.538742 1.337298,1.224114 -2.074242,2.230501 -5.962933,2.874733 -8.016409,1.328066 -1.016927,-0.765935 -1.246139,-0.756483 -2.463969,0.101577 -1.261934,0.889133 -1.287528,0.989482 -0.425342,1.667419 0.504576,0.396751 1.734458,0.729208 2.73309,0.738803 1.707088,0.0164 1.756452,0.06562 0.825344,0.822921 -1.73251,1.409117 -4.691148,1.021269 -6.548692,-0.858488 z M 46.49186,82.438823 c -0.308824,-0.40014 -1.156567,-2.190004 -1.883868,-3.977477 -0.7273,-1.787478 -1.798463,-3.648114 -2.380359,-4.13476 -1.322856,-1.106288 -0.79487,-2.132592 1.097116,-2.132592 1.991284,0 2.574163,0.98653 3.138252,5.31154 0.268327,2.057359 0.613083,4.172686 0.76611,4.70073 0.331241,1.14294 0.03699,1.235755 -0.737251,0.232559 z m 26.879937,-0.232559 c 0.252901,-0.528044 0.585126,-2.521309 0.738261,-4.429472 0.305026,-3.800471 1.323758,-5.582798 3.190999,-5.582798 0.623656,0 1.406437,0.353101 1.739519,0.784666 0.483538,0.626522 0.400614,0.90263 -0.411405,1.369948 -0.559352,0.321906 -1.845509,2.437584 -2.858142,4.701509 -1.012615,2.263925 -2.070165,4.116227 -2.350093,4.116227 -0.319767,0 -0.338044,-0.356875 -0.04917,-0.96008 z M 52.478294,62.831502 c -1.055746,-1.463443 -1.569883,-1.698975 -3.959183,-1.813757 -2.369787,-0.113843 -2.946271,-0.373087 -4.209027,-1.892824 -1.712058,-2.060459 -1.842379,-3.132605 -0.476321,-3.918769 2.866659,-1.649759 7.715732,0.209407 8.924153,3.421573 0.640868,1.703546 1.416315,5.885625 1.091307,5.885625 -0.08669,0 -0.703611,-0.756829 -1.370929,-1.681848 z m -2.785593,-3.588716 c 1.423802,-0.58752 0.861247,-1.297079 -0.753084,-0.949893 -1.302314,0.280087 -1.607204,0.14184 -1.845157,-0.836641 -0.356672,-1.466674 -1.186418,-1.538143 -1.186418,-0.102191 0,1.651849 1.972808,2.636376 3.784659,1.888725 z m 17.132948,4.216258 c 0,-4.681716 3.136276,-8.82081 6.683704,-8.82081 1.688828,0 3.551441,0.583784 4.450452,1.394871 0.09083,0.08196 -0.200028,0.908412 -0.646371,1.836563 -1.021501,2.124159 -3.406552,3.477627 -5.746235,3.260868 -1.526563,-0.141429 -2.031013,0.124305 -3.273128,1.724239 -1.380979,1.778798 -1.468422,1.814782 -1.468422,0.604269 z m 7.229975,-4.791208 c 0.986084,-0.959615 1.25922,-2.383749 0.457187,-2.383749 -0.261697,0 -0.629177,0.519645 -0.816638,1.154768 -0.276158,0.935635 -0.621526,1.094399 -1.820033,0.836642 -0.813552,-0.174971 -1.479193,-0.118567 -1.479193,0.125337 0,1.418259 2.302967,1.586323 3.658677,0.267002 z M 59.254059,16.864977 c -0.92833,-2.320505 -1.410578,-2.820814 -3.761682,-3.902593 l -2.696833,-1.240854 2.707992,-1.31249 c 2.372918,-1.1500903 2.839009,-1.6515033 3.766869,-4.0523613 0.582375,-1.5069307 1.21249,-2.739873 1.400249,-2.739873 0.187758,0 0.745983,1.2099047 1.240491,2.6886773 0.820553,2.4537777 1.152516,2.8074567 3.799634,4.048239 l 2.900515,1.359562 -2.869888,1.377466 c -2.536337,1.21737 -2.9743,1.67143 -3.768159,3.906715 -0.494048,1.391087 -1.068384,2.529249 -1.276315,2.529249 -0.207921,0 -0.857215,-1.197782 -1.442873,-2.661737 z"
       id="path125" /></g></svg>
